<svg width="64" height="64" xmlns="http://www.w3.org/2000/svg">

 <g>
  <title>background</title>
  <rect fill="none" id="canvas_background" height="402" width="582" y="-1" x="-1"/>
 </g>
 <g>
  <title>Layer 1</title>
  <path fill="#ffffff" id="svg_1" d="m44.0156,45.197l-0.0071,0.02c-0.7031,2.0046 -1.5782,4.4995 -3.9845,5.2809a4.2663,4.2663 0 0 1 -1.32,0.2062c-1.7457,0 -3.2378,-0.9764 -4.675,-1.9628l3.5859,12.0972a1.3021,1.3021 0 0 0 2.3555,0.3154l2.573,-4.1539a1.3018,1.3018 0 0 1 1.3566,-0.5922l4.7954,0.9372a1.302,1.302 0 0 0 1.37,-1.9417l-6.0498,-10.2063z"/>
  <path fill="#ffffff" id="svg_2" d="m24.5873,50.704a4.2677,4.2677 0 0 1 -1.32,-0.2061c-2.2195,-0.7209 -3.1333,-2.8957 -3.8139,-4.8026l-5.7546,9.708a1.302,1.302 0 0 0 1.37,1.9417l4.7955,-0.9372a1.302,1.302 0 0 1 1.3566,0.5922l2.5728,4.1539a1.3019,1.3019 0 0 0 2.3552,-0.3154l3.7061,-12.5023c-0.143,0.097 -0.2808,0.1912 -0.4012,0.2741c-1.4963,1.0297 -3.0438,2.0937 -4.8665,2.0937z"/>
  <path fill="#ffffff" stroke="#000000" stroke-opacity="0" id="svg_3" d="m56.34975,24.71c0,-2.4131 -4.7523,-4.0453 -5.4594,-6.2227c-0.7328,-2.2565 2.1271,-6.3656 0.76,-8.2439c-1.3807,-1.8971 -6.1814,-0.44 -8.0784,-1.82c-1.8784,-1.3672 -1.9678,-6.39 -4.2244,-7.123c-2.1775,-0.7071 -5.1933,3.281 -7.6064,3.281s-5.4285,-3.988 -7.6058,-3.2809c-2.2566,0.7326 -2.3461,5.7557 -4.2244,7.1228c-1.897,1.3805 -6.6977,-0.0769 -8.0784,1.82c-1.367,1.8782 1.4927,5.9874 0.76,8.244c-0.707,2.1775 -5.4595,3.81 -5.4595,6.2229s4.7525,4.0453 5.46,6.2226c0.7327,2.2565 -2.1269,6.3656 -0.76,8.2439c1.3806,1.8971 6.1812,0.44 8.0783,1.82c1.8782,1.3671 1.9677,6.39 4.2244,7.123c2.1775,0.707 5.1932,-3.281 7.6065,-3.281s5.4287,3.988 7.6061,3.2811c2.2564,-0.7328 2.346,-5.7559 4.2243,-7.1228c1.8971,-1.3806 6.6977,0.0768 8.0784,-1.82c1.3671,-1.8783 -1.4926,-5.9874 -0.76,-8.244c0.7062,-2.1773 5.4587,-3.8095 5.4587,-6.223zm-24.6023,13.1215a13.1212,13.1212 0 1 1 13.1212,-13.1215a13.1213,13.1213 0 0 1 -13.1212,13.1215z"/>
  <path fill="#ffffff" id="svg_4" d="m37.4145,21.5491l-2.4632,0a1.3375,1.3375 0 0 1 -1.2721,-0.9242l-0.7612,-2.3427a1.3376,1.3376 0 0 0 -2.5442,0l-0.7611,2.3427a1.3376,1.3376 0 0 1 -1.2721,0.9242l-2.4632,0a1.3375,1.3375 0 0 0 -0.7862,2.42l1.9928,1.448a1.3376,1.3376 0 0 1 0.4858,1.4954l-0.7612,2.3426a1.3376,1.3376 0 0 0 2.0583,1.4949l1.9931,-1.4477a1.3373,1.3373 0 0 1 1.5724,0l1.9925,1.4477a1.3376,1.3376 0 0 0 2.0582,-1.4955l-0.7612,-2.3426a1.3378,1.3378 0 0 1 0.486,-1.4954l1.9928,-1.448a1.3375,1.3375 0 0 0 -0.7862,-2.4194z"/>
 </g>
</svg>